<svg xmlns="http://www.w3.org/2000/svg" viewBox="0 0 152 64"><rect width="152" height="64" rx="8" fill="#000"/><path fill="#fff" d="M32.5 20.8c-.9-1.1-2.4-2.1-4.1-2.1-2.3 0-3.9 1.5-4.6 1.5-.7 0-2.5-1.5-4.1-1.5-2.1 0-4 1.2-5.1 3.1-2.2 3.8-.6 9.4 1.6 12.4 1.1 1.5 2.4 3.1 4.1 3.1 1.6-.1 2.2-1 4.1-1 1.9 0 2.4 1 4 1 1.7 0 2.8-1.4 3.9-2.9 1.2-1.8 1.7-3.5 1.7-3.6 0-.1-3.2-1.3-3.2-5 0-3.1 2.5-4.6 2.6-4.7-1.4-2.1-3.6-2.3-4.4-2.4-2-.1-3.6 1.2-4.5 1.2zM29 14.5c1-1.2 1.6-2.8 1.5-4.5-1.5.1-3.3 1-4.4 2.2-.9 1-1.7 2.7-1.5 4.3 1.7.1 3.4-.8 4.4-2z"/><path fill="#fff" d="M52.1 45.5h-5.2l-3.2-10.5h-.1l-3.1 10.5h-5.1l5.4-17.4h5l5.3 17.4zm-6.5-13.3l1.7 5.9h-3.5l1.8-5.9z"/><path fill="#fff" d="M62.7 45.5V28.1h4.6c1.4 0 2.5.4 3.4 1.1.9.8 1.3 1.8 1.3 3 0 1-.3 1.9-.8 2.5-.6.7-1.4 1.1-2.5 1.2l2.5 9.1h-5.6l-2.2-8.1h-1.2v8.1h-4.1zm4.1-11.1v3.8h.9c.7 0 1.3-.2 1.6-.6.4-.4.5-.9.5-1.3 0-.5-.2-1-.5-1.3-.3-.4-.9-.6-1.6-.6h-1z"/><path fill="#fff" d="M84.3 45.5h-4.1V28.1h4.1v17.4z"/></svg>
