<svg width="92" height="92" viewBox="0 0 92 92" fill="none" xmlns="http://www.w3.org/2000/svg">
<rect width="92" height="92" rx="25.2626" fill="white"/>
<path d="M53.3353 30C51.1372 30 49.0452 30.4594 47.149 31.2887C48.1128 31.9345 49.0198 32.685 49.8551 33.5325C53.1112 36.8346 54.9028 41.2267 54.9028 45.8963H53.3368C53.3368 40.0138 50.1868 34.8758 45.5022 32.1286C44.9733 31.8148 44.4234 31.5358 43.8555 31.2887C41.9578 30.4594 39.8658 30 37.6677 30C29.0142 30 22 37.1166 22 45.8963C22 54.676 29.0142 61.7926 37.6677 61.7926C39.8658 61.7926 41.9578 61.3332 43.854 60.5039C42.8902 59.8581 41.9832 59.1076 41.1479 58.2616C37.8918 54.9595 36.1001 50.5674 36.1001 45.8978H37.6662C37.6662 51.7818 40.8161 56.9183 45.4993 59.6655C46.0282 59.9793 46.5781 60.2583 47.146 60.5054C49.0437 61.3347 51.1342 61.7941 53.3323 61.7941C61.9858 61.7941 69 54.6776 69 45.8978C69 37.1181 61.9888 30 53.3353 30Z" fill="#AB6976"/>
</svg>
