<svg xmlns="http://www.w3.org/2000/svg" viewBox="0 0 750 471"><rect fill="#0E4595" width="750" height="471" rx="40"/><path fill="#FFF" d="M278.2 334.2l33.4-195.8h53.4l-33.4 195.8zM524.3 142.7c-10.6-4-27.1-8.2-47.8-8.2-52.7 0-89.9 26.6-90.2 64.6-.3 28.1 26.5 43.8 46.8 53.2 20.8 9.6 27.8 15.7 27.7 24.3-.1 13.1-16.6 19.1-31.9 19.1-21.4 0-32.7-3-50.2-10.3l-6.9-3.1-7.5 43.8c12.5 5.5 35.5 10.2 59.4 10.4 56.1 0 92.5-26.2 92.9-66.9.2-22.3-14-39.2-44.8-53.2-18.7-9-30-15.1-30-24.3 0-8.1 9.7-16.8 30.6-16.8 17.4-.3 30.1 3.5 39.9 7.5l4.8 2.3 7.2-42.4M661.6 138.5h-41.2c-12.8 0-22.3 3.5-27.9 16.2l-79.2 179.4h56s9.2-24.1 11.2-29.4c6.1 0 60.6.1 68.3.1 1.6 6.9 6.5 29.3 6.5 29.3h49.5l-43.2-195.6zm-65.4 126.4c4.4-11.3 21.3-54.7 21.3-54.7-.3.5 4.4-11.3 7.1-18.7l3.6 16.9s10.2 46.7 12.4 56.5h-44.3z"/><path fill="#fff" d="M45.9 138.5l-.7 4.1c21.1 5.1 39.9 12.5 56.4 21.7l47.3 169.7 56.5-.1 84-195.4h-56.5l-52.2 133.5-5.6-27.1a88 88 0 0 0-.8-2.5l-18.2-87.4c-3.2-12.4-12.6-16.1-24.2-16.5H45.9z"/></svg>
